<?xml version='1.0' encoding='utf-8'?><svg xmlns="http://www.w3.org/2000/svg" version="1.1" id="Layer_1" x="0px" y="0px" viewBox="0 0 400 400" enable-background="new 0 0 400 400"><rect x="0" y="0" width="399" height="399" style="fill:rgb(255,255,255) "/><rect x="5" y="5" width="1" height="1" style="fill:rgb(0,0,0) "/><rect x="5" y="6" width="1" height="1" style="fill:rgb(0,0,0) "/><rect x="5" y="7" width="1" height="1" style="fill:rgb(0,0,0) "/><rect x="5" y="8" width="1" height="1" style="fill:rgb(0,0,0) "/><rect x="5" y="9" width="1" height="1" style="fill:rgb(0,0,0) "/><rect x="6" y="5" width="1" height="1" style="fill:rgb(0,0,0) "/><rect x="6" y="7" width="1" height="1" style="fill:rgb(0,0,0) "/><rect x="7" y="5" width="1" height="1" style="fill:rgb(0,0,0) "/><rect x="7" y="6" width="1" height="1" style="fill:rgb(0,0,0) "/><rect x="7" y="8" width="1" height="1" style="fill:rgb(0,0,0) "/><rect x="7" y="9" width="1" height="1" style="fill:rgb(0,0,0) "/><rect x="9" y="5" width="1" height="1" style="fill:rgb(0,0,0) "/><rect x="10" y="5" width="1" height="1" style="fill:rgb(0,0,0) "/><rect x="10" y="6" width="1" height="1" style="fill:rgb(0,0,0) "/><rect x="10" y="7" width="1" height="1" style="fill:rgb(0,0,0) "/><rect x="10" y="8" width="1" height="1" style="fill:rgb(0,0,0) "/><rect x="10" y="9" width="1" height="1" style="fill:rgb(0,0,0) "/><rect x="11" y="5" width="1" height="1" style="fill:rgb(0,0,0) "/><rect x="13" y="5" width="1" height="1" style="fill:rgb(0,0,0) "/><rect x="13" y="6" width="1" height="1" style="fill:rgb(0,0,0) "/><rect x="13" y="7" width="1" height="1" style="fill:rgb(0,0,0) "/><rect x="13" y="8" width="1" height="1" style="fill:rgb(0,0,0) "/><rect x="13" y="9" width="1" height="1" style="fill:rgb(0,0,0) "/><rect x="14" y="5" width="1" height="1" style="fill:rgb(0,0,0) "/><rect x="14" y="7" width="1" height="1" style="fill:rgb(0,0,0) "/><rect x="14" y="9" width="1" height="1" style="fill:rgb(0,0,0) "/><rect x="15" y="5" width="1" height="1" style="fill:rgb(0,0,0) "/><rect x="15" y="7" width="1" height="1" style="fill:rgb(0,0,0) "/><rect x="15" y="9" width="1" height="1" style="fill:rgb(0,0,0) "/></svg>